<svg xmlns="http://www.w3.org/2000/svg" viewBox="0 0 512 512">
  <defs>
    <linearGradient id="grad" x1="0%" y1="0%" x2="100%" y2="100%">
      <stop offset="0%" style="stop-color:#6366f1;stop-opacity:1" />
      <stop offset="100%" style="stop-color:#4338ca;stop-opacity:1" />
    </linearGradient>
    <filter id="shadow">
      <feDropShadow dx="0" dy="4" stdDeviation="8" flood-color="#000" flood-opacity="0.2"/>
    </filter>
  </defs>
  
  <!-- Background -->
  <rect x="32" y="32" width="448" height="448" rx="128" fill="url(#grad)" filter="url(#shadow)" />
  
  <!-- Chart & Pin Icon -->
  <g transform="translate(106, 106) scale(0.6)" fill="white">
    <!-- Map Pin -->
    <path d="M256 0c-97.2 0-176 78.8-176 176 0 102.2 138.1 278.4 163.4 309.4 6.7 8.2 18.5 8.2 25.2 0C293.9 454.4 432 278.2 432 176 432 78.8 353.2 0 256 0zm0 256c-44.2 0-80-35.8-80-80s35.8-80 80-80 80 35.8 80 80-35.8 80-80 80z"/>
    <!-- Bar Chart Overlay -->
    <path d="M360 416h-48v-96h48v96zm-80 0h-48v-160h48v160zm-80 0h-48v-64h48v64z" opacity="0.9"/>
  </g>
</svg>
